<svg width="139" height="154" viewBox="0 0 139 154" fill="none" xmlns="http://www.w3.org/2000/svg">
<path d="M101.752 22.9359C115.443 30.1085 126.353 41.6404 132.756 55.7081C139.159 69.7758 140.69 85.5765 137.107 100.612C133.523 115.647 125.03 129.059 112.971 138.726C100.911 148.394 85.9727 153.766 70.518 153.992C55.0633 154.218 39.9741 149.287 27.6364 139.976C15.2987 130.666 6.41656 117.509 2.39442 102.585C-1.62771 87.6613 -0.560284 71.8226 5.42792 57.5733C11.4161 43.3241 21.9834 31.4776 35.4587 23.9071L41.0784 33.9099C29.8276 40.2306 21.0048 50.1215 16.0051 62.0184C11.0055 73.9153 10.1143 87.1394 13.4724 99.5995C16.8306 112.06 24.2464 123.045 34.5474 130.818C44.8484 138.591 57.4466 142.709 70.35 142.52C83.2533 142.331 95.7255 137.846 105.794 129.774C115.863 121.703 122.954 110.505 125.946 97.9519C128.938 85.3987 127.659 72.2064 122.313 60.461C116.967 48.7157 107.859 39.0875 96.4275 33.099L101.752 22.9359Z" fill="currentColor"/>
<line x1="70.5" y1="2.40413e-07" x2="70.5" y2="76" stroke="#78B57E" stroke-width="11"/>
</svg>
